HIERARCHY
ROOT Hips
{
	OFFSET -14.64140 90.27770 -84.91600
	CHANNELS 6 Xposition Yposition Zposition Zrotation Xrotation Yrotation
	JOINT Spine
	{
		OFFSET 0.00000 13.20850 -1.60436
		CHANNELS 3 Zrotation Xrotation Yrotation
		JOINT Spine1
		{
			OFFSET 0.00000 8.61716 0.00000
			CHANNELS 3 Zrotation Xrotation Yrotation
			JOINT Spine2
			{
				OFFSET 0.00000 8.61717 0.00000
				CHANNELS 3 Zrotation Xrotation Yrotation
				JOINT Spine3
				{
					OFFSET 0.00000 8.61717 0.00000
					CHANNELS 3 Zrotation Xrotation Yrotation
					JOINT Neck
					{
						OFFSET 0.00000 11.07920 1.10792
						CHANNELS 3 Zrotation Xrotation Yrotation
						JOINT Neck1
						{
							OFFSET 0.00000 7.08032 0.00000
							CHANNELS 3 Zrotation Xrotation Yrotation
							JOINT Head
							{
								OFFSET 0.00000 7.08031 0.00000
								CHANNELS 3 Zrotation Xrotation Yrotation
								End site
								{
									OFFSET 0.00000 0.00000 0.00000
								}
							}
						}
					}
					JOINT RightShoulder
					{
						OFFSET -0.01000 7.91373 5.19711
						CHANNELS 3 Zrotation Xrotation Yrotation
						JOINT RightArm
						{
							OFFSET -18.41580 0.00000 0.00000
							CHANNELS 3 Zrotation Xrotation Yrotation
							JOINT RightForeArm
							{
								OFFSET -29.11090 0.00000 0.00000
								CHANNELS 3 Zrotation Xrotation Yrotation
								JOINT RightHand
								{
									OFFSET -24.65040 0.00000 0.00000
									CHANNELS 3 Zrotation Xrotation Yrotation
									JOINT RightHandThumb1
									{
										OFFSET -5.35114 -0.85590 3.97906
										CHANNELS 3 Zrotation Xrotation Yrotation
										JOINT RightHandThumb2
										{
											OFFSET -4.52789 0.00000 0.00000
											CHANNELS 3 Zrotation Xrotation Yrotation
											JOINT RightHandThumb3
											{
												OFFSET -2.46976 0.00000 0.00000
												CHANNELS 3 Zrotation Xrotation Yrotation
												End site
												{
													OFFSET 0.00000 0.00000 0.00000
												}
											}
										}
									}
									JOINT RightHandIndex1
									{
										OFFSET -14.26970 0.00000 2.88139
										CHANNELS 3 Zrotation Xrotation Yrotation
										JOINT RightHandIndex2
										{
											OFFSET -5.48836 0.00000 0.00000
											CHANNELS 3 Zrotation Xrotation Yrotation
											JOINT RightHandIndex3
											{
												OFFSET -3.01859 0.00000 0.00000
												CHANNELS 3 Zrotation Xrotation Yrotation
												End site
												{
													OFFSET 0.00000 0.00000 0.00000
												}
											}
										}
									}
									JOINT RightHandMiddle1
									{
										OFFSET -14.26970 0.00000 -0.09147
										CHANNELS 3 Zrotation Xrotation Yrotation
										JOINT RightHandMiddle2
										{
											OFFSET -6.17441 0.00000 0.00000
											CHANNELS 3 Zrotation Xrotation Yrotation
											JOINT RightHandMiddle3
											{
												OFFSET -3.56743 0.00000 0.00000
												CHANNELS 3 Zrotation Xrotation Yrotation
												End site
												{
													OFFSET 0.00000 0.00000 0.00000
												}
											}
										}
									}
									JOINT RightHandRing1
									{
										OFFSET -12.69180 0.00000 -3.06433
										CHANNELS 3 Zrotation Xrotation Yrotation
										JOINT RightHandRing2
										{
											OFFSET -5.62556 0.00000 0.00000
											CHANNELS 3 Zrotation Xrotation Yrotation
											JOINT RightHandRing3
											{
												OFFSET -3.56744 0.00000 0.00000
												CHANNELS 3 Zrotation Xrotation Yrotation
												End site
												{
													OFFSET 0.00000 0.00000 0.00000
												}
											}
										}
									}
									JOINT RightHandPinky1
									{
										OFFSET -11.11390 0.00000 -6.03719
										CHANNELS 3 Zrotation Xrotation Yrotation
										JOINT RightHandPinky2
										{
											OFFSET -4.52789 0.00000 0.00000
											CHANNELS 3 Zrotation Xrotation Yrotation
											JOINT RightHandPinky3
											{
												OFFSET -2.46976 0.00000 0.00000
												CHANNELS 3 Zrotation Xrotation Yrotation
												End site
												{
													OFFSET 0.00000 0.00000 0.00000
												}
											}
										}
									}
								}
							}
						}
					}
					JOINT LeftShoulder
					{
						OFFSET 0.01000 7.91373 5.19711
						CHANNELS 3 Zrotation Xrotation Yrotation
						JOINT LeftArm
						{
							OFFSET 18.41580 0.00000 0.00000
							CHANNELS 3 Zrotation Xrotation Yrotation
							JOINT LeftForeArm
							{
								OFFSET 29.11090 0.00000 0.00000
								CHANNELS 3 Zrotation Xrotation Yrotation
								JOINT LeftHand
								{
									OFFSET 24.65040 0.00000 0.00000
									CHANNELS 3 Zrotation Xrotation Yrotation
									JOINT LeftHandThumb1
									{
										OFFSET 5.35114 -0.85590 3.97906
										CHANNELS 3 Zrotation Xrotation Yrotation
										JOINT LeftHandThumb2
										{
											OFFSET 4.52789 0.00000 0.00000
											CHANNELS 3 Zrotation Xrotation Yrotation
											JOINT LeftHandThumb3
											{
												OFFSET 2.46977 0.00000 0.00000
												CHANNELS 3 Zrotation Xrotation Yrotation
												End site
												{
													OFFSET 0.00000 0.00000 0.00000
												}
											}
										}
									}
									JOINT LeftHandIndex1
									{
										OFFSET 14.26970 0.00000 2.88139
										CHANNELS 3 Zrotation Xrotation Yrotation
										JOINT LeftHandIndex2
										{
											OFFSET 5.48836 0.00000 0.00000
											CHANNELS 3 Zrotation Xrotation Yrotation
											JOINT LeftHandIndex3
											{
												OFFSET 3.01859 0.00000 0.00000
												CHANNELS 3 Zrotation Xrotation Yrotation
												End site
												{
													OFFSET 0.00000 0.00000 0.00000
												}
											}
										}
									}
									JOINT LeftHandMiddle1
									{
										OFFSET 14.26970 0.00000 -0.09147
										CHANNELS 3 Zrotation Xrotation Yrotation
										JOINT LeftHandMiddle2
										{
											OFFSET 6.17440 0.00000 0.00000
											CHANNELS 3 Zrotation Xrotation Yrotation
											JOINT LeftHandMiddle3
											{
												OFFSET 3.56744 0.00000 0.00000
												CHANNELS 3 Zrotation Xrotation Yrotation
												End site
												{
													OFFSET 0.00000 0.00000 0.00000
												}
											}
										}
									}
									JOINT LeftHandRing1
									{
										OFFSET 12.69180 0.00000 -3.06433
										CHANNELS 3 Zrotation Xrotation Yrotation
										JOINT LeftHandRing2
										{
											OFFSET 5.62556 0.00000 0.00000
											CHANNELS 3 Zrotation Xrotation Yrotation
											JOINT LeftHandRing3
											{
												OFFSET 3.56744 0.00000 0.00000
												CHANNELS 3 Zrotation Xrotation Yrotation
												End site
												{
													OFFSET 0.00000 0.00000 0.00000
												}
											}
										}
									}
									JOINT LeftHandPinky1
									{
										OFFSET 11.11390 0.00000 -6.03719
										CHANNELS 3 Zrotation Xrotation Yrotation
										JOINT LeftHandPinky2
										{
											OFFSET 4.52789 0.00000 0.00000
											CHANNELS 3 Zrotation Xrotation Yrotation
											JOINT LeftHandPinky3
											{
												OFFSET 2.46976 0.00000 0.00000
												CHANNELS 3 Zrotation Xrotation Yrotation
												End site
												{
													OFFSET 0.00000 0.00000 0.00000
												}
											}
										}
									}
								}
							}
						}
					}
					JOINT pCube4
					{
						OFFSET 0.00000 10.91090 1.10792
						CHANNELS 3 Zrotation Xrotation Yrotation
						End site
						{
							OFFSET 0.00000 0.00000 0.00000
						}
					}
				}
			}
		}
	}
	JOINT RightUpLeg
	{
		OFFSET -9.98441 0.00000 0.00000
		CHANNELS 3 Zrotation Xrotation Yrotation
		JOINT RightLeg
		{
			OFFSET 0.00000 -42.11790 0.00000
			CHANNELS 3 Zrotation Xrotation Yrotation
			JOINT RightFoot
			{
				OFFSET 0.00000 -45.00020 -0.00001
				CHANNELS 3 Zrotation Xrotation Yrotation
				JOINT RightForeFoot
				{
					OFFSET 0.00000 -3.74820 0.00000
					CHANNELS 3 Zrotation Xrotation Yrotation
					JOINT RightToeBase
					{
						OFFSET 0.00000 0.06325 14.43120
						CHANNELS 3 Zrotation Xrotation Yrotation
						End site
						{
							OFFSET 0.00000 0.00000 0.00000
						}
					}
				}
			}
		}
	}
	JOINT LeftUpLeg
	{
		OFFSET 9.98441 0.00000 0.00000
		CHANNELS 3 Zrotation Xrotation Yrotation
		JOINT LeftLeg
		{
			OFFSET 0.00000 -42.11800 0.00000
			CHANNELS 3 Zrotation Xrotation Yrotation
			JOINT LeftFoot
			{
				OFFSET 0.00000 -45.00070 0.00000
				CHANNELS 3 Zrotation Xrotation Yrotation
				JOINT LeftForeFoot
				{
					OFFSET 0.00000 -3.74824 0.00000
					CHANNELS 3 Zrotation Xrotation Yrotation
					JOINT LeftToeBase
					{
						OFFSET 0.00000 0.06325 14.43110
						CHANNELS 3 Zrotation Xrotation Yrotation
						End site
						{
							OFFSET 0.00000 0.00000 0.00000
						}
					}
				}
			}
		}
	}
}
MOTION
Frames: 4
Frame Time: 0.050000
-0.03525014102144952 -0.014973175269821915 -0.014460897249807779 -0.027342240775230432 -0.04909668432517478 0.016886992894898607 4.538473147956973 2.461410261355697 -2.0457135353117026 -0.7080002663957541 3.52386352008395 0.41563417250602924 -0.6504806882638692 -1.144644294889419 1.5595649325560559 -0.006854626538221437 -0.29438031800868236 -0.22154456980866263 0.7002606206180348 11.892006810962416 -3.4035823872175954 0.2882153245539947 -0.6771804716642813 -9.197575957467413 1.4620684221145126 -16.950280948489482 -0.8392972010019133 -9.011382717892944 3.2066838320555497 -15.899033923408807 75.62485495096904 21.356410996765323 15.675735143519566 33.01420211256218 9.304675399420832 87.47572903801155 18.806257408034977 -0.3846356406590389 -7.715019836794143 4.527794891211987 -0.15671844553621014 -1.6276762686633532 0.004072788761019225 -0.0166223478425935 -56.27330170472358 -0.026152419378655173 0.044263563744128806 -56.237938953429804 -38.78894447729645 -0.028801762514287767 0.019424197941413885 -0.03902098976163024 -0.028537369676160013 -0.020523516281630728 -0.013586874375981085 0.006053042799119761 0.024173264445817313 -36.70636222612207 0.03936179025864777 -0.02114171135271958 -0.008153100437662153 0.030203301776291862 0.01841424776198923 -0.007528785696121421 0.007761059428168563 0.027694496608764316 -19.791490440602434 -0.04166395445429272 0.040834035114720654 -0.014866369861957765 -0.037061330241832606 0.011576052458088893 -0.024579234483784004 0.029011299429628806 -0.004834205496911204 24.064291060220658 -0.018099934244328673 0.016897416036330205 28.87447342386018 -0.048333222278369885 -0.0123821612391533 28.87598604591979 -0.009375571789640788 0.009235066797617009 8.140959219481822 2.0507025222904764 13.823773880728323 -74.19146704583257 26.57948902318022 -10.287737111914957 -29.95657719203845 8.205763552995517 -80.64951463242429 -24.460176755080187 -8.498668306828314 6.0807147932860115 -0.4985601832319715 0.07224412620492648 -8.095547110378858 0.016997336916101065 -0.011488050128911192 44.54841347629612 -0.022515375348304365 -0.022281615868833947 44.6165138285091 12.462668599478878 0.0026605357485740477 -0.016821401576589384 0.03133131822971379 0.017229526766975402 0.017299691639072842 0.006526338900226811 0.028003579084400314 0.010159622476925846 11.141101991719596 -0.032835429875680625 -0.03560039212768378 -0.004506888597414738 -0.019224641704264366 -0.0036427088368223208 0.03818144314670291 -0.02781485783306157 0.03504522076827348 4.816617020228919 -0.025819869291474434 -0.026048922068516292 0.007180475684058199 0.014521790394670492 -0.009591025787156458 -0.001286049697052209 0.02275983558652535 -0.04014331814435658 -5.6362412810865585 -0.004167335093033832 0.029070549392914202 -6.713190190794107 -0.03330831540591689 -0.014780657786200692 -6.739334381695175 0.043900469305661265 0.03536409590234308 -0.027052940431786326 -0.0034290643673974656 0.006580353915226198 8.092791574329565 3.4822299305909024 -19.25043124153248 0.027405506951099966 10.43451239166789 -0.03560039729675528 -5.62870646432024 -15.621219550548279 3.207516222963113 0.007430703963217034 -0.037841866970118716 0.00671442532073232 0.04221134202824501 4.6681922969987815 0.04896818625026409 12.46340817437999 -8.198917398156423 6.847242479560514 -0.013063535736575508 46.40731818075396 -0.015840926546516254 -4.326839702937578 -14.76561978012001 -3.817772530479022 0.016325390955268828 -0.010621878670355371 0.04888886257181974 0.02847881048403754 -10.770384239227415 0.013998102542025992 
-0.03240903866281587 -0.01088781634481906 -0.027809559139376425 -0.012501676904824597 -0.037888168943365975 -0.042627171491063764 4.708377349972371 2.4214219845316927 -2.0718811169861246 -0.6951060403678636 3.575111248426914 0.38980212236240774 -0.6637156703020036 -1.1602750613139972 1.4859915042596017 -0.11267603739314033 -0.32076169186622255 -0.2624482443686973 0.7071599973460534 11.913001809308515 -3.243467585514713 0.3195567303879075 -0.5554171048722568 -8.66225734092985 1.5016812426638966 -16.869780276070088 -0.7209010806110188 -9.327409126161655 3.3075409307494423 -16.166637912466978 77.08294905116432 19.82129516857981 15.3280179353629 27.62187169267259 8.134552392400616 87.51623528988719 18.327581140932384 -0.4304367022240113 -6.995968457333418 4.5641676941644675 -0.12467521115717485 -1.6000423269770179 0.04077279528560125 0.02042311316340835 -56.26057745190849 0.01928345164630498 -0.013394077071467206 -56.23150740170341 -38.72991494110062 0.01952467814773037 0.040065548939810756 0.028629814993287348 0.002570708576880073 0.04578397639796227 -0.0013981036262169157 0.02596289771692613 0.040804396716980246 -36.68171809778511 -0.043244859289489096 -0.002279550392061282 -0.016237716900508094 0.035301061103856876 0.023382617893291494 -0.004636397863503286 -0.010265450027711126 0.04474986320549523 -19.775296469107012 -0.016456211237903747 -0.025850125090117592 0.027735326749302375 -0.021494273085919606 -0.02214159041437435 0.037271540693128255 0.02264929689761801 0.03693751346533664 24.094071843598435 0.01874054838695536 -0.014738496760879951 28.84474065719425 0.01302668554562922 -0.04710826106772021 28.851451012898586 -0.03171735775168237 0.03563321963464184 8.531752088150697 2.1517945255436493 14.027988789697858 -74.72318642427192 25.680368760143697 -10.698326003259899 -26.348056293108225 7.2584777981185535 -78.52486184171192 -23.64509339911674 -8.064828856386965 5.763800692698052 -0.4619214623494165 0.029623002993347407 -8.115743227345273 0.015179431306594385 0.02158563325522071 44.588450468894514 0.010700103925940018 0.04997006195066788 44.532764997747286 12.471052612611102 -0.010133761266138993 -0.008943789853879306 0.037328818429099395 0.013951086748550138 -0.024773485134193488 -0.04323228416374885 0.006884701244711061 0.03801686959343415 11.117565174027492 -0.04806045169796251 0.028555404091177485 0.011491880724444965 -0.02545348830486261 -0.030718630875837486 -0.014806952666845992 -0.028631090312491895 -0.0395893996697463 4.798032957719039 0.0023494876713095582 0.0054164244609077915 0.039528261325798904 -0.01775312032803547 0.002225788335661159 -0.03461611065522756 -0.0170832785826823 0.01173473337186439 -5.5976893354355255 0.01150649600786471 -0.0016736006814806093 -6.676071197706085 0.030131227297003814 0.011342364949248753 -6.723679164950823 -0.007834307104969941 0.014666650198058741 0.012537808234922166 0.0322733214289014 -0.002855315586588754 8.01039467472467 3.470824873738273 -19.21432080804768 -0.026619863703253643 10.389335594073597 -0.0250830463656037 -5.669575833252931 -15.690026126345291 3.1626567411292372 -0.03861343280315498 0.02341127407825975 -0.010594968413006162 0.01788931190763338 4.653811522249394 -0.012554741039134995 12.44436443966869 -8.205799905700827 6.8895051224279165 -0.04993409649595024 46.34911683296536 0.021764314676329014 -4.349492891577137 -14.74893134592517 -3.80656720338276 -0.0018436210293067664 0.012332074524866095 -0.04418015305494968 -0.00578189224285614 -10.745766732757147 0.031701660550979435 
0.031801472011328956 0.035667944686063845 -0.001987374369507016 0.03625924776394032 0.019757780359183602 0.028691704701773804 4.745855312681612 2.322830113366689 -2.123877613010737 -0.6922907197099041 3.5435762912941104 0.34779276153926886 -0.6456086085006487 -1.2267423559635033 1.5267560327779446 -0.16094381832816135 -0.40593284638850735 -0.21435319186719728 0.650738547217901 11.910955492951025 -3.0653688352271873 0.32017271181912954 -0.4611383435932891 -7.943465057575102 1.3869821800113777 -16.80367223885379 -0.6973336195882887 -9.548575933808044 3.4224491032102096 -16.426107313363286 78.16669152960438 18.980294183246727 14.688077701600056 22.466296628379226 6.801141640180183 88.38067323914372 17.784062182234223 -0.5012587839990035 -6.191610319706088 4.5470728790465955 -0.16008488701069434 -1.6354515266465002 -0.025869622302194174 0.022924292660161414 -56.261873373149115 -0.004049113283911012 0.01773103436676526 -56.22916910311842 -38.7412485326209 0.029777188021982866 -0.010067261169312633 -0.015334362972446558 -0.014428565397776242 -0.022971757350248066 0.0394844343192365 0.04292420590870726 0.02305653230306454 -36.66917100364118 0.0016221031959225173 -0.006824413457524345 0.0034204859338036603 -0.03406955608453983 -0.045458732840952615 -0.013681119453005515 0.032709418802240126 -0.015048675382797737 -19.7381783533555 -0.027485367402199562 0.046015133811755815 0.030340495998374788 0.04691679678315815 -0.035052682777571106 -0.00275136452558842 -0.014347924044645879 -0.014068552693808228 24.031771468838826 0.00316126923759271 0.024998449764110912 28.880728501071093 0.027486836968501654 0.022431088617472467 28.85806756132417 -0.027970881234878293 -0.008869213935934777 8.81094835339132 2.177721445069049 14.220658513916389 -75.20221161118835 25.233861873803047 -10.679771449032733 -24.238932108894193 6.876826335480142 -77.54928171774306 -22.96342794598278 -7.893064880485341 5.649424808335602 -0.5162420470068424 0.08177961024528413 -8.113171752849144 -0.046940766216649235 -0.03859230124585492 44.61254143283749 -0.0007986659856634415 0.001045441735711765 44.5258545333636 12.434050703942479 -0.043323191058987284 -0.0027951324461855825 -0.007516215501352043 0.029721531599495567 -0.0015962961921260367 0.011829897013133485 0.035297355794714456 0.03792699484835278 11.128709590747604 -0.017698725268405425 0.04487069774321069 0.03544677273201761 -0.029487032944117638 0.0031822161335126353 0.02012762003116405 -0.04563967226353496 0.02223853160192341 4.778836029025107 -0.021349347360283745 0.03036539014473721 0.034158408782130785 -0.04702683626130691 -0.015892178834447615 -0.04152133966157346 -0.008187235977043253 -0.02427504401451147 -5.645925946955803 0.03864471903115274 -0.030225760464569564 -6.738101544318746 0.0006525907220340693 -0.034897610303774376 -6.765374352864364 0.010223006162091581 0.014107396844449572 -0.028063230565995096 0.0067694930450735704 -0.014336330744849283 8.002206188285255 3.4777335618079173 -19.207917457048115 -0.0026555014011785554 10.382778098430947 0.05942141057867607 -5.641034063862775 -15.634301638600604 3.1862938624346113 -0.03135268136460004 -0.02370425093344272 0.03584243334305847 -0.045774032908629296 4.697133344891918 0.009178567647422534 12.447889229398909 -8.238477918255613 6.87616179779046 -0.039971522744844994 46.39065112486799 0.05144625985815633 -4.306214500733151 -14.79580843239568 -3.851530938460482 -0.019939180268087147 -0.03589533830607982 -0.03637733899533217 -0.028075669252384024 -10.73129453386022 0.027894974782510754 
-0.013234917817380629 0.0487889826885412 0.011480853476549799 0.042586789218303944 -0.000671368605031446 0.01805727969819616 4.785873326398414 2.29791515707927 -2.1627462004197175 -0.6773917994964653 3.462432895341441 0.4348887715587655 -0.6218143658575616 -1.2140382514140107 1.5061192294488674 -0.2554179320570171 -0.3822454161158317 -0.24769386131139293 0.5462031914370491 11.868106939559352 -2.747388345055193 0.3784021203662968 -0.3976433287406658 -7.030134265390835 1.3359629005019513 -16.666411454589706 -0.6317628405064201 -9.559445740478916 3.3897573539320662 -16.662361112647325 79.36107351325475 18.94207464309165 13.509333798726864 17.462077937055643 5.220498222702484 89.96438335669437 17.219864927381387 -0.5158608046447082 -5.548981479975842 4.567447866969188 -0.1190545727620291 -1.5665429544941132 0.038592643717295115 -0.0069448895765059585 -56.20759496049768 -0.0013875517570233694 -0.036344383383179545 -56.27056357816499 -38.734649824163824 -0.028652499480881628 0.048536655866506316 -0.005101541685853904 0.03926567171563661 -0.04930407034644817 0.01926021445720444 -0.0012336489248227047 -0.00924742450867054 -36.71734504855943 -0.04006286221229677 -0.013789637930407554 0.016983528343385464 0.043665005271014246 -0.03194576537825012 0.023313853608787648 -0.04398210488565889 0.019233072624456178 -19.77034468748307 0.010574578953148912 0.008733032405631313 0.04480968053347214 -0.0020783004470403014 -0.04665712899342718 -0.03991934081933209 -0.04954066592313406 0.025945225378574202 24.046852583583842 -0.012851951282929925 -0.021669812447705324 28.85735278368349 0.01622276968411982 -0.041533403725330674 28.846970635709706 -0.032534357535731064 -0.004153948430153045 8.979099570101868 2.185628562903216 14.371096755518618 -75.8127319679295 25.137179935551302 -10.445749267921624 -23.77785119109628 7.102910242449881 -77.55635505509936 -22.563183839081326 -8.043638689707903 5.682221828589559 -0.4252011278553305 0.09422328088259276 -8.102015673856286 0.03774214234717404 -0.027385195201651957 44.57185647328863 0.014801239079849144 0.026752004280389874 44.57018803447771 12.478082546946085 -0.037770537588735095 -0.03823669760020933 -0.004559919887831799 0.003476858395187921 -0.015090220715542457 0.02010528119620984 -0.020361952250195665 -0.009842149758148289 11.135848746228856 -0.005968388539919027 -0.013548658042221329 -0.013597145804452513 0.035085483225311284 0.01871374668296684 -0.04285643187926286 -0.011002569127037707 0.01970717880063294 4.76719514325215 0.0005274536306453765 0.042126523000558844 0.009772001246569077 0.005759852191922647 -0.005872720374672598 0.03766488191501557 0.0077862814487259435 0.002970171087755328 -5.605731040828935 -0.028990470511960645 -0.012726060533075954 -6.710763214606561 0.041398630431599186 0.03751350344490227 -6.674262582056957 0.010694093373517958 -0.03825037120395759 0.008467842258124815 -0.011612588525340289 -0.0416807035814296 8.010678605911563 3.4726927631392996 -19.231977526569253 -0.04750758426637033 10.3705968648841 -0.027322359158152117 -5.645965940098759 -15.633142462306175 3.1605180525311978 0.030266315726555783 0.014212311937716647 -0.028649795600873065 -0.03163947834234129 4.72638065254989 0.01415218724558246 12.499011701773131 -8.250422849420456 6.9308763173133245 -0.006893768445284888 46.423950454535934 -0.03815557848010472 -4.339578347864244 -14.7030634201551 -3.854057058990291 0.027341355592659225 -0.00863381288308386 -0.02980706480559012 0.025808347326544093 -10.782120377181405 0.03424658571333163 
